<svg width="268" height="63" viewBox="0 0 268 63" fill="none" xmlns="http://www.w3.org/2000/svg">
<path d="M1.2 36.35C1.43333 34.8833 2.15 33.6333 3.35 32.6C4.55 31.5667 6 31.05 7.7 31.05C8.36667 31.05 9.01667 31.1833 9.65 31.45C10.2833 31.7167 10.8 32.0833 11.2 32.55C11.6333 33.0167 11.9 33.5833 12 34.25C12.1333 34.8833 12.0333 35.5833 11.7 36.35C10.9 36.35 10.25 36.7167 9.75 37.45C9.28333 38.1833 9 39 8.9 39.9C8.83333 40.8 9 41.6167 9.4 42.35C9.8 43.0833 10.5 43.45 11.5 43.45C12.2 43.45 12.8833 43.1 13.55 42.4C14.25 41.7 14.7333 40.5667 15 39L18.2 19.75C18.5 17.85 19.05 16.0667 19.85 14.4C20.6833 12.7333 21.85 11.2833 23.35 10.05C24.85 8.78333 26.7 7.8 28.9 7.1C31.1333 6.36667 33.7833 6 36.85 6L36.65 7.25C35.3833 7.25 34.2667 8.38333 33.3 10.65C32.3667 12.8833 31.6167 15.9167 31.05 19.75L28.9 32.8C28.7333 34 28.75 35.05 28.95 35.95C29.1833 36.8167 29.5333 37.55 30 38.15C30.5 38.75 31.0833 39.2 31.75 39.5C32.45 39.7667 33.1667 39.9 33.9 39.9C35.3 39.9 36.4833 39.4667 37.45 38.6C38.4167 37.7333 39.15 36.65 39.65 35.35C40.15 34.05 40.4 32.65 40.4 31.15C40.4 29.6167 40.1333 28.2 39.6 26.9C39.0667 25.6 38.2333 24.5167 37.1 23.65C36 22.7833 34.5833 22.35 32.85 22.35L33.2 20C34.1667 20 35.05 19.8167 35.85 19.45C36.6833 19.05 37.4 18.5333 38 17.9C38.6333 17.2333 39.15 16.4667 39.55 15.6C39.9833 14.7333 40.2667 13.8333 40.4 12.9C40.6 11.7 40.5667 10.4833 40.3 9.25C40.0333 7.98333 39.4833 6.85 38.65 5.85C37.8167 4.85 36.6833 4.03333 35.25 3.4C33.8167 2.76666 32.0333 2.45 29.9 2.45C28.6333 2.45 27.2333 2.63333 25.7 3C24.2 3.36667 22.7667 3.91667 21.4 4.65C20.0667 5.35 18.9 6.23333 17.9 7.3C16.9333 8.33333 16.35 9.53333 16.15 10.9C16.0833 11.4 16.0667 11.8667 16.1 12.3C16.1333 12.7333 16.1833 13.15 16.25 13.55C16.3167 13.95 16.3667 14.35 16.4 14.75C16.4667 15.1167 16.4667 15.5167 16.4 15.95C16.1667 17.45 15.4333 18.6167 14.2 19.45C13 20.2833 11.7 20.7 10.3 20.7C9.56667 20.7 8.85 20.5667 8.15 20.3C7.45 20.0333 6.85 19.6167 6.35 19.05C5.88333 18.4833 5.53333 17.7667 5.3 16.9C5.06667 16 5.05 14.9333 5.25 13.7C5.61667 11.4 6.56667 9.4 8.1 7.7C9.63333 6 11.55 4.6 13.85 3.5C16.1833 2.36666 18.7833 1.53333 21.65 0.999998C24.5167 0.433331 27.4333 0.149997 30.4 0.149997C34.7333 0.149997 38.4167 0.516664 41.45 1.25C44.4833 1.95 46.95 2.9 48.85 4.1C50.55 5.2 51.7667 6.56666 52.5 8.2C53.2333 9.83333 53.4667 11.5 53.2 13.2C53 14.5 52.6167 15.6333 52.05 16.6C51.4833 17.5333 50.7667 18.3333 49.9 19C49.0667 19.6333 48.1167 20.1667 47.05 20.6C45.9833 21 44.8667 21.3167 43.7 21.55C46.3667 22.4833 48.4333 23.7333 49.9 25.3C51.4 26.8667 52.3667 28.5667 52.8 30.4C53.2667 32.2 53.2333 34.0333 52.7 35.9C52.2 37.7333 51.2833 39.4 49.95 40.9C48.65 42.4 46.9833 43.6333 44.95 44.6C42.9167 45.5333 40.6167 46 38.05 46C37.15 46 36.15 45.8833 35.05 45.65C33.9833 45.4167 32.9333 45 31.9 44.4C30.8667 43.8 29.9333 43 29.1 42C28.2667 41 27.65 39.7333 27.25 38.2C26.7833 39.2 26.1667 40.1667 25.4 41.1C24.6667 42.0333 23.7333 42.8667 22.6 43.6C21.5 44.3 20.1833 44.8833 18.65 45.35C17.1167 45.7833 15.3333 46 13.3 46C11.0667 46 9.13333 45.7 7.5 45.1C5.9 44.5 4.6 43.7333 3.6 42.8C2.63333 41.8667 1.95 40.8333 1.55 39.7C1.15 38.5333 1.03333 37.4167 1.2 36.35ZM56.2352 30.85L59.0852 12.7C59.3185 11.2 59.3685 9.96667 59.2352 9C59.1352 8.03333 58.6018 7.55 57.6352 7.55L57.7352 6.8H72.4852L72.8352 7.15L68.8352 32.25C68.4685 34.65 68.4685 36.45 68.8352 37.65C69.2352 38.85 69.8185 39.45 70.5852 39.45C71.4518 39.45 72.4018 38.6333 73.4352 37C74.5018 35.3333 75.3018 32.8333 75.8352 29.5H78.1352C77.8018 31.6667 77.2518 33.75 76.4852 35.75C75.7518 37.7167 74.7685 39.4667 73.5352 41C72.3352 42.5333 70.8852 43.75 69.1852 44.65C67.4852 45.55 65.5352 46 63.3352 46C61.0352 46 59.3185 45.5 58.1852 44.5C57.0852 43.5 56.3352 42.25 55.9352 40.75C55.5685 39.25 55.4685 37.6167 55.6352 35.85C55.8018 34.05 56.0018 32.3833 56.2352 30.85ZM75.3699 31.4C75.6366 29.5667 76.2866 27.7667 77.3199 26C78.3533 24.2333 79.7366 22.6667 81.4699 21.3C83.2366 19.9 85.3366 18.7833 87.7699 17.95C90.2033 17.0833 92.9366 16.65 95.9699 16.65C99.0366 16.65 101.637 17.0667 103.77 17.9C105.937 18.7333 107.67 19.8333 108.97 21.2C110.303 22.5667 111.203 24.1333 111.67 25.9C112.17 27.6333 112.287 29.4167 112.02 31.25C111.653 33.7833 110.587 36.1667 108.82 38.4C110.553 38 112.087 37.0667 113.42 35.6C114.787 34.1333 115.67 32.1 116.07 29.5H118.37C118.037 31.5333 117.47 33.3 116.67 34.8C115.903 36.2667 114.987 37.4833 113.92 38.45C112.853 39.3833 111.687 40.0833 110.42 40.55C109.187 40.9833 107.92 41.2 106.62 41.2H106.12C104.353 42.6333 102.237 43.8 99.7699 44.7C97.3366 45.5667 94.5533 46 91.4199 46C88.3866 46 85.7866 45.5833 83.6199 44.75C81.4533 43.9167 79.7033 42.8167 78.3699 41.45C77.0699 40.0833 76.1699 38.5333 75.6699 36.8C75.2033 35.0333 75.1033 33.2333 75.3699 31.4ZM91.7199 43.65C92.8866 43.65 93.9533 43.1333 94.9199 42.1C95.9199 41.0333 96.7866 39.6833 97.5199 38.05C96.5199 37.2167 95.7366 36.2667 95.1699 35.2C94.6366 34.1 94.4699 32.9333 94.6699 31.7C94.8366 30.7333 95.2699 30.0333 95.9699 29.6C96.6699 29.1333 97.4033 28.9 98.1699 28.9C98.8366 28.9 99.3866 29.05 99.8199 29.35C99.9533 27.9833 99.9866 26.6833 99.9199 25.45C99.8533 24.1833 99.6533 23.0833 99.3199 22.15C98.9866 21.1833 98.5199 20.4167 97.9199 19.85C97.3533 19.2833 96.6199 19 95.7199 19C94.4866 19 93.3366 19.6167 92.2699 20.85C91.2366 22.05 90.3366 23.5667 89.5699 25.4C88.8366 27.2333 88.2866 29.2167 87.9199 31.35C87.5533 33.45 87.4199 35.4167 87.5199 37.25C87.6533 39.0833 88.0533 40.6167 88.7199 41.85C89.3866 43.05 90.3866 43.65 91.7199 43.65ZM130.904 16.75C132.604 16.75 134.054 17.1333 135.254 17.9C136.454 18.6667 137.421 19.7167 138.154 21.05L138.604 18.2L139.104 17.85H151.604L147.904 40.9C149.971 39.9667 151.538 38.6167 152.604 36.85C153.671 35.0833 154.471 32.6333 155.004 29.5H157.304C156.938 31.7333 156.454 33.6667 155.854 35.3C155.288 36.9 154.588 38.2833 153.754 39.45C152.954 40.5833 152.021 41.5167 150.954 42.25C149.888 42.9833 148.704 43.5833 147.404 44.05L146.854 47.45C146.421 50.0833 145.704 52.35 144.704 54.25C143.738 56.15 142.588 57.7167 141.254 58.95C139.954 60.1833 138.554 61.0833 137.054 61.65C135.588 62.25 134.138 62.55 132.704 62.55C131.438 62.55 130.238 62.3333 129.104 61.9C127.971 61.4667 127.004 60.8333 126.204 60C125.404 59.2 124.804 58.2 124.404 57C124.038 55.8333 123.971 54.5 124.204 53C124.471 51.2667 125.154 49.8167 126.254 48.65C127.354 47.5167 128.504 46.6167 129.704 45.95C131.138 45.1833 132.721 44.5833 134.454 44.15L135.054 40C133.988 41.0667 132.771 41.9 131.404 42.5C130.071 43.0667 128.621 43.35 127.054 43.35C124.254 43.35 121.988 42.7 120.254 41.4C118.554 40.0667 117.338 38.4167 116.604 36.45C115.904 34.4833 115.688 32.35 115.954 30.05C116.254 27.75 117.004 25.6167 118.204 23.65C119.438 21.6833 121.104 20.05 123.204 18.75C125.338 17.4167 127.904 16.75 130.904 16.75ZM131.554 39.85C132.554 39.85 133.571 39.1167 134.604 37.65C135.638 36.1833 136.388 33.9333 136.854 30.9C137.388 27.4333 137.354 24.85 136.754 23.15C136.188 21.4167 135.404 20.5333 134.404 20.5C133.404 20.4667 132.354 21.2667 131.254 22.9C130.188 24.5333 129.371 27.0167 128.804 30.35C128.271 33.4833 128.321 35.85 128.954 37.45C129.621 39.05 130.488 39.85 131.554 39.85ZM128.604 56.25C129.438 56.25 130.388 55.5 131.454 54C132.554 52.5333 133.421 50.1 134.054 46.7C133.388 46.9333 132.654 47.2167 131.854 47.55C131.088 47.9167 130.354 48.35 129.654 48.85C128.954 49.35 128.338 49.9333 127.804 50.6C127.304 51.3 126.971 52.1 126.804 53C126.638 54 126.754 54.7833 127.154 55.35C127.554 55.95 128.038 56.25 128.604 56.25ZM173.379 45.2L176.779 23.75C177.045 22.25 177.112 21.0167 176.979 20.05C176.845 19.0833 176.295 18.6 175.329 18.6L175.429 17.85H190.179L190.579 18.2L189.279 26.55C189.945 24.7833 190.712 23.2833 191.579 22.05C192.445 20.7833 193.362 19.75 194.329 18.95C195.295 18.15 196.279 17.5667 197.279 17.2C198.312 16.8333 199.295 16.65 200.229 16.65C201.329 16.65 202.362 16.8833 203.329 17.35C204.295 17.8167 205.112 18.4833 205.779 19.35C206.479 20.2167 206.979 21.2667 207.279 22.5C207.579 23.7 207.612 25.05 207.379 26.55C208.745 23.0167 210.445 20.4833 212.479 18.95C214.545 17.3833 216.562 16.6 218.529 16.6C219.729 16.6 220.829 16.8667 221.829 17.4C222.862 17.9 223.712 18.6333 224.379 19.6C225.079 20.5333 225.545 21.65 225.779 22.95C226.045 24.25 225.979 25.7 225.579 27.3L224.229 32.9C224.062 33.6 223.962 34.3333 223.929 35.1C223.895 35.8667 223.945 36.5667 224.079 37.2C224.212 37.8333 224.445 38.3667 224.779 38.8C225.112 39.2 225.545 39.4 226.079 39.4C226.945 39.4 227.879 38.5833 228.879 36.95C229.912 35.3167 230.712 32.8333 231.279 29.5H233.579C233.245 31.6667 232.695 33.75 231.929 35.75C231.195 37.7167 230.212 39.4667 228.979 41C227.779 42.5333 226.329 43.75 224.629 44.65C222.962 45.55 221.029 46 218.829 46C216.662 46 214.962 45.6 213.729 44.8C212.529 44 211.679 42.9833 211.179 41.75C210.679 40.4833 210.462 39.0833 210.529 37.55C210.629 35.9833 210.879 34.45 211.279 32.95L212.779 27.3C213.145 25.9333 213.262 24.9667 213.129 24.4C213.029 23.8333 212.779 23.55 212.379 23.55C211.979 23.55 211.529 23.8 211.029 24.3C210.529 24.8 210.012 25.5333 209.479 26.5C208.979 27.4667 208.495 28.65 208.029 30.05C207.562 31.4167 207.195 32.9833 206.929 34.75L205.279 45.2H191.529L194.429 27.3C194.629 26 194.662 25.0667 194.529 24.5C194.429 23.9 194.195 23.6 193.829 23.6C193.495 23.6 193.095 23.85 192.629 24.35C192.162 24.8167 191.695 25.4667 191.229 26.3C190.795 27.1333 190.379 28.1167 189.979 29.25C189.579 30.3833 189.279 31.5833 189.079 32.85L187.129 45.2H173.379ZM230.898 31.3C231.298 28.8333 232.132 26.6833 233.398 24.85C234.698 22.9833 236.232 21.45 237.998 20.25C239.798 19.0167 241.748 18.1 243.848 17.5C245.948 16.9 248.032 16.6 250.098 16.6C252.798 16.6 254.982 17.0333 256.648 17.9C258.315 18.7333 259.515 19.7833 260.248 21.05C260.982 22.2833 261.265 23.65 261.098 25.15C260.965 26.6167 260.432 27.9833 259.498 29.25C258.565 30.4833 257.265 31.5333 255.598 32.4C253.965 33.2333 251.998 33.65 249.698 33.65C248.132 33.65 246.748 33.4833 245.548 33.15C244.348 32.8167 243.565 32.4833 243.198 32.15C243.265 33.4167 243.482 34.6333 243.848 35.8C244.248 36.9667 244.832 38 245.598 38.9C246.398 39.7667 247.398 40.4667 248.598 41C249.798 41.5333 251.248 41.8 252.948 41.8C254.315 41.8 255.665 41.55 256.998 41.05C258.365 40.55 259.615 39.8 260.748 38.8C261.915 37.7667 262.932 36.4833 263.798 34.95C264.665 33.4167 265.265 31.6 265.598 29.5H267.898C267.498 32.3 266.698 34.7333 265.498 36.8C264.332 38.8667 262.848 40.5833 261.048 41.95C259.248 43.3167 257.182 44.3333 254.848 45C252.515 45.6667 249.998 46 247.298 46C244.198 46 241.532 45.5833 239.298 44.75C237.098 43.8833 235.315 42.7667 233.948 41.4C232.615 40.0333 231.698 38.4667 231.198 36.7C230.698 34.9333 230.598 33.1333 230.898 31.3ZM251.348 18.9C250.415 18.9 249.482 19.2333 248.548 19.9C247.615 20.5333 246.765 21.3833 245.998 22.45C245.232 23.4833 244.598 24.6833 244.098 26.05C243.598 27.3833 243.298 28.7667 243.198 30.2C244.898 30.2 246.348 29.9333 247.548 29.4C248.782 28.8333 249.798 28.1333 250.598 27.3C251.398 26.4333 251.998 25.5167 252.398 24.55C252.798 23.5833 253.015 22.6833 253.048 21.85C253.082 20.9833 252.948 20.2833 252.648 19.75C252.348 19.1833 251.915 18.9 251.348 18.9Z" fill="black"/>
<path d="M155.049 39.68C155.316 37.9733 156.196 36.3733 157.689 34.88C159.182 33.3867 161.316 32.64 164.089 32.64C166.542 32.64 168.302 33.3333 169.369 34.72C170.436 36.1067 170.862 37.6533 170.649 39.36C170.489 41.0667 169.689 42.6133 168.249 44C166.862 45.3333 164.809 46 162.089 46C159.529 46 157.662 45.36 156.489 44.08C155.316 42.7467 154.836 41.28 155.049 39.68Z" fill="#038B83"/>
</svg>
